Coordinates
version=1
nRows=6
nColumns=63
inDegrees=yes

Units are S.I. units (second, meters, Newtons, ...)
If the header above contains a line with 'inDegrees', this indicates whether rotational values are in degrees (yes) or radians (no).

endheader
time	pelvis_tilt	pelvis_list	pelvis_rotation	pelvis_tx	pelvis_ty	pelvis_tz	hip_flexion_r	hip_adduction_r	hip_rotation_r	knee_angle_r	knee_angle_r_beta	ankle_angle_r	subtalar_angle_r	mtp_angle_r	hip_flexion_l	hip_adduction_l	hip_rotation_l	knee_angle_l	knee_angle_l_beta	ankle_angle_l	subtalar_angle_l	mtp_angle_l	L5_S1_Flex_Ext	L5_S1_Lat_Bending	L5_S1_axial_rotation	L4_L5_Flex_Ext	L4_L5_Lat_Bending	L4_L5_axial_rotation	L3_L4_Flex_Ext	L3_L4_Lat_Bending	L3_L4_axial_rotation	L2_L3_Flex_Ext	L2_L3_Lat_Bending	L2_L3_axial_rotation	L1_L2_Flex_Ext	L1_L2_Lat_Bending	L1_L2_axial_rotation	L1_T12_Flex_Ext	L1_T12_Lat_Bending	L1_T12_axial_rotation	Abs_r3	Abs_r2	Abs_r1	Abs_t1	Abs_t2	neck_flexion	neck_bending	neck_rotation	arm_flex_r	arm_add_r	arm_rot_r	elbow_flex_r	pro_sup_r	wrist_flex_r	wrist_dev_r	arm_flex_l	arm_add_l	arm_rot_l	elbow_flex_l	pro_sup_l	wrist_flex_l	wrist_dev_l
      2.34545455	     -0.11026916	     -1.74878435	     86.45124151	      0.19474238	      0.48401861	      1.02922680	      6.08321570	      1.67795953	      7.13908186	     22.01260459	      0.38419243	     34.74897605	    -11.29585810	      0.00000000	      6.04409505	      0.34546647	     -1.80013516	     20.22868460	      0.35305715	     40.60758255	     -1.23228101	      0.00000000	     -0.27707695	      0.06409686	      2.63293806	     -0.51455961	      0.08524882	      2.79749669	     -0.45520972	      0.15584510	      2.79749669	     -0.31667125	      0.15584510	      2.30382080	     -0.25729366	      0.13070631	      2.13926218	     -0.15832177	      0.09928603	      1.97470355	     -1.97913296	      0.72507647	     14.64361162	      0.00000000	      0.00000000	     26.22423227	     -8.73574437	    -17.07200279	      1.05740660	     -8.03056974	     30.30588766	     51.34090147	     56.98168003	      2.92140536	      7.56620341	     17.90666541	     -7.81029167	     67.73834736	     47.73576647	     49.10507777	      1.09531983	     16.91302973
      2.36363636	     -0.16251576	     -1.53815383	     86.21377478	      0.19474553	      0.48423608	      1.02909613	      6.29022851	      1.56185435	      6.96181383	     22.61888400	      0.39477400	     34.96578265	    -11.57444264	      0.00000000	      6.30460280	      0.49798748	     -1.42202841	     20.93104943	      0.36531573	     41.18621529	     -1.10943994	      0.00000000	     -0.31264787	      0.06410790	      2.66794042	     -0.58061835	      0.08526351	      2.83468670	     -0.51364918	      0.15587195	      2.83468670	     -0.35732525	      0.15587195	      2.33444787	     -0.29032481	      0.13072883	      2.16770159	     -0.17864699	      0.09930314	      2.00095532	     -2.23321245	      0.72520141	     14.83828426	      0.00000000	      0.00000000	     25.90319173	     -8.70296315	    -17.18479732	      0.76281951	     -7.93295369	     29.98676211	     51.33227056	     57.09164358	      2.82257788	      7.20729381	     17.48912159	     -7.63377692	     67.63878506	     47.23643004	     49.05442478	      0.76181544	     16.25621040
      2.38181818	      0.00572015	     -1.72365955	     86.19298381	      0.19439881	      0.48402462	      1.02929509	      6.95960692	      1.71053034	      6.69098145	     23.27224975	      0.40617738	     35.11930264	    -12.09750873	      0.00000000	      7.14351668	      0.37053487	     -1.09628322	     21.95938365	      0.38326355	     41.70000234	     -1.02355783	      0.00000000	     -0.29791492	      0.09184902	      2.77492646	     -0.55325779	      0.12215919	      2.94835937	     -0.48944442	      0.22332170	      2.94835937	     -0.34048696	      0.22332170	      2.42806066	     -0.27664379	      0.18729852	      2.25462775	     -0.17022858	      0.14227413	      2.08119485	     -2.12797646	      1.03901447	     15.43330851	      0.00000000	      0.00000000	     25.60091698	     -9.40832701	    -18.32831797	     -0.30800748	     -7.62108244	     27.24654544	     51.63817086	     64.76104170	      3.12892298	      5.56693736	     17.98342635	     -7.37939485	     71.49823871	     46.50525273	     44.55916913	     -1.69566298	     10.43693832
      2.40000000	      0.01848427	     -1.66588541	     86.14580639	      0.19424062	      0.48412578	      1.02938343	      7.41897267	      1.68243999	      6.46461167	     23.96661903	      0.41829641	     35.53340265	    -12.45492884	      0.00000000	      7.55853906	      0.42371389	     -0.79011730	     22.66273075	      0.39553927	     42.17334860	     -0.88732583	      0.00000000	     -0.32294397	      0.09898424	      2.80418434	     -0.59973924	      0.13164904	      2.97944586	     -0.53056464	      0.24067028	      2.97944586	     -0.36909266	      0.24067028	      2.45366130	     -0.29988577	      0.20184866	      2.27839978	     -0.18453018	      0.15332659	      2.10313826	     -2.30675647	      1.11972953	     15.59603205	      0.00000000	      0.00000000	     25.30829798	     -9.27660887	    -18.66132491	     -0.69821675	     -7.53579518	     26.63584063	     51.78344417	     65.03502205	      2.81976811	      5.01583305	     17.64694883	     -7.05648072	     71.38444980	     45.99719512	     44.45536018	     -2.14079625	      9.44316229
      2.41818182	      0.07681210	     -1.69183233	     86.14558948	      0.19428781	      0.48426031	      1.02940208	      7.95587107	      1.74025050	      6.30365650	     24.62328543	      0.42975740	     36.00576443	    -12.75409509	      0.00000000	      7.99678633	      0.39828678	     -0.45169578	     23.24586885	      0.40571695	     42.67190610	     -0.65259220	      0.00000000	     -0.33512843	      0.10893264	      2.83188915	     -0.62236701	      0.14488041	      3.00888222	     -0.55058250	      0.26485882	      3.00888222	     -0.38301829	      0.26485882	      2.47790300	     -0.31120026	      0.22213544	      2.30090993	     -0.19149239	      0.16873666	      2.12391686	     -2.39378889	      1.23226781	     15.75011787	      0.00000000	      0.00000000	     25.04467132	     -9.21113781	    -19.03532347	     -1.01842431	     -7.42590053	     26.07801869	     51.79954668	     65.53997818	      2.45436741	      4.59505296	     17.45247008	     -6.69210835	     71.47574720	     45.46041798	     44.29612444	     -2.59222907	      8.43152824
      2.43636364	      0.25559720	     -1.93777502	     86.18450933	      0.19449280	      0.48430608	      1.02948790	      8.60287555	      1.94907604	      6.06092669	     25.02943099	      0.43684598	     36.31967279	    -12.93350794	      0.00000000	      8.65191096	      0.03582297	     -0.98037489	     23.81081787	      0.41557717	     43.21500588	      0.54842119	      0.00000000	     -0.31808767	      0.13233624	      2.91797629	     -0.59072061	      0.17600720	      3.10034981	     -0.52258623	      0.32176234	      3.10034981	     -0.36354240	      0.32176234	      2.55322925	     -0.29537621	      0.26986007	      2.37085574	     -0.18175529	      0.20498884	      2.18848222	     -2.27206841	      1.49701406	     16.22890873	      0.00000000	      0.00000000	     24.92088609	     -9.65186294	    -19.90928351	     -1.68308698	     -7.06318557	     23.45931860	     51.93840039	     75.26575770	      2.42116957	      3.90234638	     18.33441517	     -6.37793338	     75.53791875	     45.09780605	     38.20446048	     -4.73982746	      4.56827808
